<mxfile host="app.diagrams.net" modified="2021-09-27T01:39:37.970Z" agent="5.0 (Windows NT 10.0; Win64; x64) AppleWebKit/537.36 (KHTML, like Gecko) Chrome/94.0.4606.61 Safari/537.36 Edg/94.0.992.31" etag="L7lZX9q6PmU0DZg6tT3n" version="15.3.2" type="github">
  <diagram id="CfAYa2vxyl3BfM7-0CQv" name="Page-1">
    <mxGraphModel dx="947" dy="605" grid="1" gridSize="10" guides="1" tooltips="1" connect="1" arrows="1" fold="1" page="1" pageScale="1" pageWidth="827" pageHeight="1169" math="0" shadow="0">
      <root>
        <mxCell id="0" />
        <mxCell id="1" parent="0" />
        <mxCell id="YR4a4Y5E5KIoSldDfOVC-4" value="" style="edgeStyle=orthogonalEdgeStyle;rounded=0;orthogonalLoop=1;jettySize=auto;html=1;" edge="1" parent="1" source="YR4a4Y5E5KIoSldDfOVC-1" target="YR4a4Y5E5KIoSldDfOVC-3">
          <mxGeometry relative="1" as="geometry" />
        </mxCell>
        <mxCell id="YR4a4Y5E5KIoSldDfOVC-1" value="特质性波动率之谜" style="rounded=1;whiteSpace=wrap;html=1;" vertex="1" parent="1">
          <mxGeometry x="50" y="90" width="120" height="60" as="geometry" />
        </mxCell>
        <mxCell id="YR4a4Y5E5KIoSldDfOVC-6" value="" style="edgeStyle=orthogonalEdgeStyle;rounded=0;orthogonalLoop=1;jettySize=auto;html=1;" edge="1" parent="1" source="YR4a4Y5E5KIoSldDfOVC-2" target="YR4a4Y5E5KIoSldDfOVC-5">
          <mxGeometry relative="1" as="geometry" />
        </mxCell>
        <mxCell id="YR4a4Y5E5KIoSldDfOVC-2" value="投资者交易行为与&lt;br&gt;交易价格" style="rounded=1;whiteSpace=wrap;html=1;" vertex="1" parent="1">
          <mxGeometry x="50" y="220" width="130" height="60" as="geometry" />
        </mxCell>
        <mxCell id="YR4a4Y5E5KIoSldDfOVC-8" value="" style="edgeStyle=orthogonalEdgeStyle;rounded=0;orthogonalLoop=1;jettySize=auto;html=1;" edge="1" parent="1" source="YR4a4Y5E5KIoSldDfOVC-3" target="YR4a4Y5E5KIoSldDfOVC-7">
          <mxGeometry relative="1" as="geometry" />
        </mxCell>
        <mxCell id="YR4a4Y5E5KIoSldDfOVC-3" value="日内特质性波动率" style="rounded=1;whiteSpace=wrap;html=1;" vertex="1" parent="1">
          <mxGeometry x="260" y="90" width="120" height="60" as="geometry" />
        </mxCell>
        <mxCell id="YR4a4Y5E5KIoSldDfOVC-5" value="聪明钱因子" style="rounded=1;whiteSpace=wrap;html=1;" vertex="1" parent="1">
          <mxGeometry x="260" y="220" width="120" height="60" as="geometry" />
        </mxCell>
        <mxCell id="YR4a4Y5E5KIoSldDfOVC-7" value="因子构建" style="rounded=1;whiteSpace=wrap;html=1;" vertex="1" parent="1">
          <mxGeometry x="440" y="150" width="120" height="60" as="geometry" />
        </mxCell>
        <mxCell id="YR4a4Y5E5KIoSldDfOVC-9" value="" style="edgeStyle=orthogonalEdgeStyle;rounded=0;orthogonalLoop=1;jettySize=auto;html=1;exitX=1;exitY=0.5;exitDx=0;exitDy=0;entryX=0;entryY=0.5;entryDx=0;entryDy=0;" edge="1" parent="1" source="YR4a4Y5E5KIoSldDfOVC-5" target="YR4a4Y5E5KIoSldDfOVC-7">
          <mxGeometry relative="1" as="geometry">
            <mxPoint x="390" y="130.0588235294117" as="sourcePoint" />
            <mxPoint x="450" y="190.0588235294117" as="targetPoint" />
          </mxGeometry>
        </mxCell>
      </root>
    </mxGraphModel>
  </diagram>
</mxfile>
